<svg xmlns="http://www.w3.org/2000/svg" viewBox="0 0 320 220" width="100%" height="100%" fill="none">
  <circle cx="160" cy="110" r="90" fill="#f8fafc" opacity="0.8"/>
  <rect x="50" y="40" width="220" height="130" rx="10" fill="#ffffff" stroke="#e2e8f0" stroke-width="1.5"/>
  <rect x="50" y="40" width="220" height="24" rx="10" fill="#0f172a"/>
  <text x="65" y="56" font-family="'Poppins', sans-serif" font-size="8.5" font-weight="700" fill="#38bdf8">High-Velocity Next.js Web Application &amp; CRO</text>
  <!-- Lighthouse 100 Scores -->
  <g transform="translate(70, 78)">
    <circle cx="16" cy="16" r="14" stroke="#10b981" stroke-width="2.5" fill="#dcfce7"/>
    <text x="8" y="20" font-family="'Poppins', sans-serif" font-size="10" font-weight="900" fill="#15803d">100</text>
    <text x="6" y="40" font-family="'Poppins', sans-serif" font-size="6" font-weight="700" fill="#64748b">Performance</text>
  </g>
  <g transform="translate(125, 78)">
    <circle cx="16" cy="16" r="14" stroke="#10b981" stroke-width="2.5" fill="#dcfce7"/>
    <text x="8" y="20" font-family="'Poppins', sans-serif" font-size="10" font-weight="900" fill="#15803d">100</text>
    <text x="11" y="40" font-family="'Poppins', sans-serif" font-size="6" font-weight="700" fill="#64748b">SEO</text>
  </g>
  <g transform="translate(180, 78)">
    <circle cx="16" cy="16" r="14" stroke="#10b981" stroke-width="2.5" fill="#dcfce7"/>
    <text x="8" y="20" font-family="'Poppins', sans-serif" font-size="10" font-weight="900" fill="#15803d">100</text>
    <text x="7" y="40" font-family="'Poppins', sans-serif" font-size="6" font-weight="700" fill="#64748b">Best Pract.</text>
  </g>
  <!-- Metric Badge -->
  <g transform="translate(130, 140)">
    <rect width="140" height="30" rx="15" fill="#ffffff" stroke="#38bdf8" stroke-width="1.5"/>
    <circle cx="16" cy="15" r="9" fill="#38bdf8"/>
    <text x="32" y="15" font-family="'Poppins', sans-serif" font-size="7.5" font-weight="700" fill="#0f172a">Engineering Metrics</text>
    <text x="32" y="24" font-family="'Poppins', sans-serif" font-size="8.5" font-weight="800" fill="#0284c7">Sub-80ms Latency (99.99%)</text>
  </g>
  <rect x="40" y="184" width="240" height="6" rx="3" fill="#cbd5e1"/>
</svg>