<svg xmlns="http://www.w3.org/2000/svg" viewBox="0 0 320 220" width="100%" height="100%" fill="none">
  <circle cx="160" cy="110" r="90" fill="#f0fdf4" opacity="0.8"/>
  <!-- Modern Calendar Stage -->
  <rect x="65" y="38" width="190" height="132" rx="10" fill="#ffffff" stroke="#e2e8f0" stroke-width="1.5"/>
  <rect x="65" y="38" width="190" height="28" rx="10" fill="#0f172a"/>
  <!-- Calendar Rings -->
  <rect x="100" y="32" width="6" height="12" rx="3" fill="#cbd5e1"/>
  <rect x="140" y="32" width="6" height="12" rx="3" fill="#cbd5e1"/>
  <rect x="180" y="32" width="6" height="12" rx="3" fill="#cbd5e1"/>
  <rect x="220" y="32" width="6" height="12" rx="3" fill="#cbd5e1"/>
  <text x="80" y="56" font-family="'Poppins', sans-serif" font-size="10" font-weight="700" fill="#ffffff">Smart Calendar AI</text>
  <text x="185" y="55" font-family="'Poppins', sans-serif" font-size="8" font-weight="600" fill="#38bdf8">Live Sync ●</text>
  <!-- Calendar Days Grid -->
  <g transform="translate(80, 78)">
    <circle cx="10" cy="10" r="8" fill="#f1f5f9"/>
    <circle cx="35" cy="10" r="8" fill="#f1f5f9"/>
    <circle cx="60" cy="10" r="8" fill="#10b981"/>
    <text x="56" y="13" font-family="'Poppins', sans-serif" font-size="8" font-weight="700" fill="#ffffff">15</text>
    <circle cx="85" cy="10" r="8" fill="#f1f5f9"/>
    <circle cx="110" cy="10" r="8" fill="#f1f5f9"/>
    <circle cx="135" cy="10" r="8" fill="#f1f5f9"/>
    <circle cx="160" cy="10" r="8" fill="#f1f5f9"/>
  </g>
  <!-- Time Slot Pill Selected -->
  <g transform="translate(80, 105)">
    <rect width="80" height="24" rx="12" fill="#eff6ff" stroke="#3b82f6" stroke-width="1.2"/>
    <circle cx="12" cy="12" r="5" fill="#3b82f6"/>
    <text x="24" y="16" font-family="'Poppins', sans-serif" font-size="8" font-weight="700" fill="#1e3a8a">10:30 AM Slot</text>
    <rect x="88" width="70" height="24" rx="12" fill="#f8fafc" stroke="#cbd5e1" stroke-width="1"/>
    <text x="100" y="16" font-family="'Poppins', sans-serif" font-size="8" font-weight="600" fill="#64748b">02:00 PM</text>
  </g>
  <!-- Confirmed Reservation Card Floating -->
  <g transform="translate(135, 138)">
    <rect width="145" height="34" rx="17" fill="#ffffff" stroke="#10b981" stroke-width="1.5"/>
    <circle cx="18" cy="17" r="10" fill="#10b981"/>
    <path d="M 14 17 L 17 20 L 22 14" stroke="#ffffff" stroke-width="1.8" stroke-linecap="round"/>
    <text x="34" y="16" font-family="'Poppins', sans-serif" font-size="8" font-weight="700" fill="#0f172a">Meeting Confirmed &amp; Synced</text>
    <text x="34" y="27" font-family="'Poppins', sans-serif" font-size="7.5" font-weight="600" fill="#059669">Google Meet + 2-Way SMS Sent</text>
  </g>
  <rect x="40" y="184" width="240" height="6" rx="3" fill="#cbd5e1"/>
</svg>