<svg xmlns="http://www.w3.org/2000/svg" viewBox="0 0 320 220" width="100%" height="100%" fill="none">
  <circle cx="160" cy="110" r="90" fill="#f0fdfa" opacity="0.8"/>
  <rect x="50" y="38" width="220" height="132" rx="10" fill="#ffffff" stroke="#e2e8f0" stroke-width="1.5"/>
  <rect x="50" y="38" width="220" height="26" rx="10" fill="#0f172a"/>
  <text x="65" y="55" font-family="'Poppins', sans-serif" font-size="8.5" font-weight="700" fill="#2dd4bf">First-Party Data &amp; Server-Side CAPI</text>
  <!-- Pipeline Diagram -->
  <g transform="translate(70, 75)">
    <rect width="45" height="30" rx="6" fill="#ccfbf1"/>
    <text x="6" y="18" font-family="'Poppins', sans-serif" font-size="7" font-weight="700" fill="#0f766e">Browser</text>
    <path d="M 50 15 L 75 15" stroke="#0f766e" stroke-width="2"/>
    <rect x="80" width="55" height="30" rx="6" fill="#14b8a6"/>
    <text x="86" y="18" font-family="'Poppins', sans-serif" font-size="7" font-weight="700" fill="#ffffff">Server CAPI</text>
    <path d="M 140 15 L 165 15" stroke="#0f766e" stroke-width="2"/>
    <rect x="170" width="45" height="30" rx="6" fill="#0f172a"/>
    <text x="176" y="18" font-family="'Poppins', sans-serif" font-size="7" font-weight="700" fill="#ffffff">GA4 / Ads</text>
  </g>
  <!-- Badge -->
  <g transform="translate(130, 138)">
    <rect width="140" height="30" rx="15" fill="#ffffff" stroke="#14b8a6" stroke-width="1.5"/>
    <circle cx="16" cy="15" r="9" fill="#14b8a6"/>
    <text x="32" y="15" font-family="'Poppins', sans-serif" font-size="7.5" font-weight="700" fill="#0f172a">Attribution Accuracy</text>
    <text x="32" y="24" font-family="'Poppins', sans-serif" font-size="8.5" font-weight="800" fill="#0f766e">100% Signal Match Rate</text>
  </g>
  <rect x="40" y="184" width="240" height="6" rx="3" fill="#cbd5e1"/>
</svg>